# xmcd
#
# Track frame offsets:
#	150
#	14474
#	30483
#	50792
#	65035
#	82080
#	102543
#	120318
#	136837
#	153520
#	167499
#	184297
#	200291
#	215226
#	230264
#
# Disc length: 3283 seconds
#
# Revision: 0
# Processed by: cddbd v1.5.2PL0 Copyright (c) Steve Scherf et al.
# Submitted via: EasyCDDAExtractor 10.2.0.1
#
DISCID=d40cd10f
DTITLE=Eric Horner - You Are Now Entering Your Mission Field
DYEAR=2006
DGENRE=Gospel
TTITLE0=Outside These Walls
TTITLE1=Teach 'em To Walk
TTITLE2=The Nails Were Not Enough
TTITLE3=For God And Country
TTITLE4=America Bless God
TTITLE5=The Quiet Time
TTITLE6=Prayer Warrior
TTITLE7=God Bless My Soldier Too
TTITLE8=That's What A Daddy's For
TTITLE9=God Is Still God At Midnight
TTITLE10=When Tomorrow Starts Without Me
TTITLE11=Sitting Around The Premises
TTITLE12=He Went Home With Heaven On His Mind
TTITLE13=Fishers Of Men
TTITLE14=That's Why It's Called Amazng Grace
EXTD=
EXTT0=
EXTT1=
EXTT2=
EXTT3=
EXTT4=
EXTT5=
EXTT6=
EXTT7=
EXTT8=
EXTT9=
EXTT10=
EXTT11=
EXTT12=
EXTT13=
EXTT14=
PLAYORDER=
